<?xml version="1.0" standalone="no"?><!DOCTYPE svg PUBLIC "-//W3C//DTD SVG 1.1//EN" "http://www.w3.org/Graphics/SVG/1.1/DTD/svg11.dtd"><svg t="1712312287563" class="icon" viewBox="0 0 1120 1024" version="1.1" xmlns="http://www.w3.org/2000/svg" p-id="23375" data-darkreader-inline-fill="" xmlns:xlink="http://www.w3.org/1999/xlink" width="218.75" height="200"><path d="M1009.476342 667.060921c0.49152-0.763345 0.962559-1.522035 1.451286-2.28538 0.863883-1.369366 1.718457-2.735939 2.559067-4.105305 90.548514-146.272682 53.359661-292.554672 44.614708-321.464028-0.111709-0.363054-0.243898-0.719592-0.35933-1.078923-0.803374-2.671707-1.298617-4.084825-1.298617-4.084825 0.017687 0.101469 0.03072 0.200145 0.047476 0.301614-7.063732-21.207021-15.88688-41.749373-26.34098-61.495798 54.899383-49.400508 50.49991-143.905382-9.86018-211.146747-60.384294-67.272084-153.915438-81.776566-208.899534-32.398399-9.399381 8.438683-17.022588 18.227183-22.968299 28.943799a564.849057 564.849057 0 0 0-68.216956-24.064909C669.355982 19.840447 615.114751 12.102738 558.913959 12.102738v882.216158l-0.291374 0.274618 0.291374 128.089251c0.060509 0.013033 0.118225 0.029789 0.179665 0.029789l0.291374-192.91677 189.635319-202.501402c37.699922 66.031184 21.693886 234.14018 21.693886 234.14018 40.561534-18.558587 79.248219-41.372355 109.64982-62.867957 0.064233-0.043753 0.118225-0.087505 0.179665-0.132189 58.471278-41.132181 99.906935-86.11646 128.932654-131.374426" fill="#AE5430" p-id="23376" data-darkreader-inline-fill="" style="--darkreader-inline-fill: #894c33;"></path><path d="M561.903105 894.319827V12.103669c-56.204516 0-110.442954 7.736778-161.291024 22.075558a565.431806 565.431806 0 0 0-68.216956 24.063978c-5.948504-10.716616-13.568919-20.501392-22.96923-28.940075C254.439007-20.077829 160.910655-5.570555 100.524499 61.70246 40.167201 128.943825 35.764005 223.444975 90.666181 272.846414c-10.4541 19.749218-19.280041 40.291571-26.34098 61.494868 0.016756-0.098676 0.027927-0.200145 0.044684-0.297891 0 0-0.49152 1.413119-1.302341 4.088549-0.111709 0.359331-0.237382 0.714938-0.355607 1.074268-8.744952 28.906563-45.930082 175.188553 44.618432 321.464028 0.844334 1.370297 1.697977 2.73687 2.559067 4.102512 0.484072 0.766137 0.958835 1.52669 1.450355 2.289104 29.029443 45.257966 70.458583 90.238522 128.930792 131.374426 0.060509 0.04096 0.118225 0.088436 0.178734 0.128465 30.402532 21.498395 69.09201 44.313094 109.652613 62.868888 0 0-16.008829-168.109927 21.693886-234.138318l189.635319 202.498609 0.288581 192.921425c0.06144 0 0.121949-0.021411 0.183389-0.031651l0.291374-128.089251-0.291374-0.274618z" fill="#DA8423" p-id="23377" data-darkreader-inline-fill="" style="--darkreader-inline-fill: #a76d2b;"></path><path d="M371.750202 627.265524s0.02048 0.026996 0.027927 0.029789l0.002793-0.023272-0.03072-0.007448zM563.194275 669.689806l-1.070545-0.237382 0.050269 152.313345c0.338851 0.132189 0.688872 0.284858 1.020276 0.406807v-152.48277z" fill="#EA8F13" p-id="23378" data-darkreader-inline-fill="" style="--darkreader-inline-fill: #dd9839;"></path><path d="M286.455734 73.262479c39.746989 32.245731 3.888404 64.35648-39.828909 113.06253-43.720106 48.703258-93.754562 88.439076-118.492518 63.312931C86.413792 207.267652 83.468398 138.222187 127.191297 89.515206c43.715451-48.70605 113.089526-53.717129 159.263506-16.253658" fill="#884023" p-id="23379" data-darkreader-inline-fill="" style="--darkreader-inline-fill: #703e2b;"></path><path d="M371.796747 627.296244c-31.50752 55.178655-25.504093 181.650918-22.683441 221.718141 0.392843 5.580795-5.403922 9.479439-10.444791 7.056284-36.360345-17.488042-70.687587-38.036911-98.218267-57.504995C-10.304782 621.240686 51.140748 377.46002 62.711937 339.203415c-7.121448 22.356692-12.301022 45.431115-15.317164 69.103181a6.302249 6.302249 0 0 1-0.278342 1.220421c-4.491632 13.330606-83.999575 252.87657-26.053329 332.411509 0.678632 0.92253 1.532275 1.712871 2.569307 2.190427 4.76625 2.194151 19.741771 4.149989 57.113083-23.739092 4.477669-3.342892 10.891626-0.617192 11.524644 4.9394v0.013963c1.139432 10.23906 23.775397 111.014532 42.018405 127.827666 0.268102 0.247622 0.52224 0.458007 0.82013 0.664668 3.386644 2.376609 22.676925 12.772061 51.249292-33.388886a7.314146 7.314146 0 0 1 2.484594-2.440841c2.735008-1.610471 8.16872-3.875371 11.246303 1.115228 4.186294 6.788183 94.826968 100.834119 200.797839 102.888634 2.20346 0.044684 4.267283 1.054719 5.604067 2.803895 12.927523 16.897846 83.764986 105.16005 148.693974 98.864318 3.718978-0.359331 6.532183-3.559793 6.525667-7.299252l-0.274618-183.70264a7.270393 7.270393 0 0 0-1.959562-4.970119l-187.680411-200.409651" fill="#EDE8C8" p-id="23380" data-darkreader-inline-fill="" style="--darkreader-inline-fill: #413d22;"></path><path d="M293.747538 480.837381c30.473281 34.978877 120.394363 57.697693 173.911347-108.669574 1.165497-3.630542-0.037236-7.608313-3.006833-10.005402-21.161406-17.100784-108.042142-80.342036-196.103269-44.844643-3.222804 1.298617-14.920597 6.2315-17.619301 8.686305 0 0-17.646297 15.16915-10.822739 42.552747 0.928116 3.732942 10.463409 29.455799 12.151145 32.914123 4.315691 11.873735 9.918827 22.573594 15.497761 33.419606a569.619962 569.619962 0 0 0 15.721178 28.516512l10.270711 17.430326z" fill="#5D1E1C" p-id="23381" data-darkreader-inline-fill="" style="--darkreader-inline-fill: #522826;"></path><path d="M324.0365 341.287719c23.385346-0.485003 69.333115 2.969597 95.934749 34.324449 4.552141 5.366686 4.074585 13.367842-1.28093 17.931154-23.131208 19.701742-86.674074 62.827928-106.825445-37.161857-1.552755-7.713506 4.311036-14.931768 12.171626-15.093746" fill="#F6DC8F" p-id="23382" data-darkreader-inline-fill="" style="--darkreader-inline-fill: #e3cb81;"></path><path d="M827.085351 480.837381c-30.476074 34.978877-120.397156 57.697693-173.91414-108.669574-1.165497-3.630542 0.04096-7.608313 3.006834-10.005402 21.16513-17.100784 108.043073-80.342036 196.106993-44.844643 3.222804 1.298617 14.917805 6.2315 17.6193 8.686305 0 0 17.643504 15.16915 10.822739 42.552747-0.928116 3.732942-10.467132 29.455799-12.154869 32.914123-4.31476 11.873735-9.917896 22.573594-15.49776 33.419606a569.564108 569.564108 0 0 1-15.718386 28.516512l-10.270711 17.430326z" fill="#5D1E1C" p-id="23383" data-darkreader-inline-fill="" style="--darkreader-inline-fill: #522826;"></path><path d="M796.793597 341.287719c-23.384415-0.485003-69.328461 2.969597-95.933818 34.324449-4.552141 5.366686-4.074585 13.367842 1.284653 17.931154 23.130277 19.701742 86.673143 62.827928 106.821721-37.161857 1.555548-7.713506-4.308243-14.931768-12.172556-15.093746" fill="#EAC985" p-id="23384" data-darkreader-inline-fill="" style="--darkreader-inline-fill: #d9bb7e;"></path><path d="M561.953374 12.1046c-77.278417-1.535999-161.291024 22.074627-161.291024 22.074627l72.399527 332.073589c-51.950265 111.604728-82.962543 187.569633-101.242788 260.998745 0.003724 0.007447 0.007447 0.01024 0.01024 0.02048l190.340947 42.179452-0.216902-657.346893z" fill="#DDB569" p-id="23385" data-darkreader-inline-fill="" style="--darkreader-inline-fill: #83652d;"></path><path d="M371.803263 627.27111c-0.002793 0.007447-0.002793 0.017687-0.006516 0.024203 1.064028 1.356333 136.803483 173.676758 190.398663 194.473249l-0.0512-152.317069-190.340947-42.179452z" fill="#894024" p-id="23386" data-darkreader-inline-fill="" style="--darkreader-inline-fill: #cd9078;"></path><path d="M562.19541 175.761062c-32.707461 1.922326-69.349872 17.951635-105.673911 60.118054 0 0 47.892436-24.37304 105.659948-28.536992" fill="#894125" p-id="23387" data-darkreader-inline-fill="" style="--darkreader-inline-fill: #cc9078;"></path><path d="M562.19541 98.643692c-42.737998 2.427809-98.901554 20.4474-138.346928 73.195454 0 0 69.034294-37.965231 138.05183-36.042906" fill="#893F24" p-id="23388" data-darkreader-inline-fill="" style="--darkreader-inline-fill: #cd8f78;"></path><path d="M749.06407 627.265524s-0.02048 0.026996-0.024204 0.029789c-0.002793-0.006516-0.002793-0.016756-0.006516-0.023272l0.03072-0.007448z" fill="#EA8F13" p-id="23389" data-darkreader-inline-fill="" style="--darkreader-inline-fill: #dd9839;"></path><path d="M834.358537 73.262479c-39.744197 32.245731-3.888404 64.35648 39.831702 113.06253 43.717313 48.703258 93.755493 88.439076 118.493449 63.312931 41.716791-42.370289 44.662185-111.415753 0.942079-160.122734-43.720106-48.70605-113.09325-53.717129-159.26723-16.253658" fill="#5C1214" p-id="23390" data-darkreader-inline-fill="" style="--darkreader-inline-fill: #521f21;"></path><path d="M749.017524 627.296244c37.702715 66.02746 21.696678 234.137387 21.696679 234.137387 40.561534-18.555794 79.248219-41.369562 109.64982-62.867957C1131.122777 621.240686 1069.673524 377.46002 1058.102334 339.203415c7.188473 22.55963 12.392251 45.848162 15.401877 69.743646 0 0 86.527921 253.117675 25.547846 333.934475 0 0-12.195829 14.484001-65.936231-27.828572 0 0-3.425742 0-4.572621 10.29026-1.142224 10.295845-24.008124 112.075767-42.306056 128.085527 0 0-20.578658 18.297932-52.590731-34.307692 0 0-8.685374-6.861725-12.918214 0-4.233771 6.862656-96.847039 102.92587-204.323188 102.92587 0 0-83.887866 115.307881-157.311392 100.668418l0.291374-192.921425L749.017524 627.296244z" fill="#D8CC99" p-id="23391" data-darkreader-inline-fill="" style="--darkreader-inline-fill: #524a2b;"></path><path d="M558.841348 12.1046c77.277486-1.535999 161.291024 22.074627 161.291024 22.074627l-72.400458 332.073589c51.157132 109.90582 82.01674 185.250741 100.398455 257.645613 0.292305 1.139432 0.549236 2.241627 0.831301 3.373612l-190.337224 42.179452 0.216902-657.346893z" fill="#CFA763" p-id="23392" data-darkreader-inline-fill="" style="--darkreader-inline-fill: #846736;"></path><path d="M749.013801 627.27111c0 0.007447 0.003724 0.017687 0.003723 0.024203-1.064028 1.356333-136.804414 173.676758-190.394939 194.473249l0.051199-152.317069 190.340017-42.179452z" fill="#5A1513" p-id="23393" data-darkreader-inline-fill="" style="--darkreader-inline-fill: #d99493;"></path><path d="M558.622585 175.761062c32.707461 1.922326 69.346148 17.951635 105.67298 60.118054 0 0-47.892436-24.37304-105.66274-28.536992M558.622585 98.643692c42.733343 2.427809 98.900623 20.4474 138.342274 73.195454 0 0-69.029639-37.965231-138.047177-36.042906" fill="#520A0F" p-id="23394" data-darkreader-inline-fill="" style="--darkreader-inline-fill: #c0bbb6;"></path><path d="M382.531981 907.561066l180.127022-65.567591-0.240175-56.415833z" fill="#7B522E" p-id="23395" data-darkreader-inline-fill="" style="--darkreader-inline-fill: #c5a283;"></path><path d="M738.286014 907.561066l-180.130745-65.567591 0.240174-56.415833z" fill="#300A09" p-id="23396" data-darkreader-inline-fill="" style="--darkreader-inline-fill: #c9c6c1;"></path></svg>